<svg xmlns="http://www.w3.org/2000/svg" viewBox="0 0 185.87 247.65">
    <defs>
        <style>.cls-1{fill:#fafafa;}.cls-2{fill:#c8c8c8;}
            #shadow {filter: drop-shadow(rgb(0, 0, 0) 1px 3px 5px);}
        </style>

    </defs>

    <title>default item</title>
    <g id="Layer_2" data-name="Layer 2">
        <g id="icon_default" data-name="icon default">
            <path id="shadow" class="cls-1"
                  d="M17,240.57a9.93,9.93,0,0,1-9.92-9.92V17A9.93,9.93,0,0,1,17,7.09h102.4V53.71a12.77,12.77,0,0,0,12.76,12.75h46.62V230.65a9.93,9.93,0,0,1-9.92,9.92Z"/>
            <path id="shadow" class="cls-2"
                  d="M132.17,59.38h41.52a2.84,2.84,0,0,0,2-4.84L131.34,10.18a2.83,2.83,0,0,0-4.84,2V53.71A5.68,5.68,0,0,0,132.17,59.38Z"/>
            <path d="M32.19,40.38a3.4,3.4,0,1,1,0-6.8H94.28a3.4,3.4,0,1,1,0,6.8Z"/>
            <path d="M32.19,75.64a3.4,3.4,0,0,1,0-6.8H94.28a3.4,3.4,0,1,1,0,6.8Z"/>
        </g>
    </g>
</svg>